{"title":"Rihanna - Bitch Better Have My Money (Explicit) 2015","uid":12093307,"size":190117564,"categoryP":"video","categoryS":"music_videos","magnet":"?xt=urn:btih:8a7f6b06d385702514933647f79a62c257f1e3f5&amp;dn=Rihanna+-+Bitch+Better+Have+My+Money+%28Explicit%29+2015&amp;tr=udp%3A%2F%2Ftracker.openbittorrent.com%3A80&amp;tr=udp%3A%2F%2Fopen.demonii.com%3A1337&amp;tr=udp%3A%2F%2Ftracker.coppersurfer.tk%3A6969&amp;tr=udp%3A%2F%2Fexodus.desync.com%3A6969","seeders":0,"leechers":0,"uploader":"MeRaDil","files":1,"time":1436104919,"description":"RIHANNA - BITCH BETTER HAVE MY MONEY\n\n &lt;a href=&quot;\nhttp://gifyu.com/images/rihanna7a5b2.png&quot; rel=&quot;nofollow&quot; target=&quot;_NEW&quot;&gt;\nhttp://gifyu.com/images/rihanna7a5b2.png&lt;/a&gt;\n &lt;a href=&quot;\nhttp://gifyu.com/images/BitchMoney.png&quot; rel=&quot;nofollow&quot; target=&quot;_NEW&quot;&gt;\nhttp://gifyu.com/images/BitchMoney.png&lt;/a&gt;\n\n\nGeneral\nRihanna - Bitch Better Have My Money (Explicit)\nFormat                      : MPEG-4\nFormat profile              : Base Media\nCodec ID                    : isom\nFile size                   : 181 MiB\nDuration                    : 7mn 1s\nOverall bit rate            : 3 605 Kbps\nMusicVid name               : Bitch Better Have My Money\nPerformer                   : Rihanna\nGenre                       : RnB\nContentType                 : Music Video\nRecorded date               : 2015\nCopyright                   : Rihanna\nCover                       : Yes\nComment                     : Explicit\nRating                      : ***\nMake                        : MeRaDil\nArtisturl                   : http://www.rihannanow.com\nRelease                     : USA . july 2 . 2015\nPart_ID                     : Bitch Better Have My Money\n\nVideo\nID                          : 1\nFormat                      : AVC\nFormat/Info                 : Advanced Video Codec\nFormat profile              : &lt;a class=&quot;__cf_email__&quot; href=&quot;/cdn-cgi/l/email-protection&quot; data-cfemail=&quot;90d8f9f7f8d0dca4bea0&quot;&gt;[email&amp;#160;protected]&lt;/a&gt;&lt;script data-cfhash='f9e31' type=&quot;text/javascript&quot;&gt;\n/* &lt;![CDATA[ */!function(){try{var t=&quot;currentScript&quot;in document?document.currentScript:function(){for(var t=document.getElementsByTagName(&quot;script&quot;),e=t.length;e--;)if(t[e].getAttribute(&quot;data-cfhash&quot;))return t[e]}();if(t&amp;&amp;t.previousSibling){var e,r,n,i,c=t.previousSibling,a=c.getAttribute(&quot;data-cfemail&quot;);if(a){for(e=&quot;&quot;,r=parseInt(a.substr(0,2),16),n=2;a.length-n;n+=2)i=parseInt(a.substr(n,2),16)^r,e+=String.fromCharCode(i);e=document.createTextNode(e),c.parentNode.replaceChild(e,c)}t.parentNode.removeChild(t);}}catch(u){}}()/* ]]&gt; */&lt;/script&gt;\nFormat settings, CABAC      : Yes\nFormat settings, ReFrames   : 2 frames\nCodec ID                    : avc1\nCodec ID/Info               : Advanced Video Coding\nDuration                    : 7mn 1s\nBit rate                    : 3 342 Kbps\nWidth                       : 1 920 pixels\nHeight                      : 1 080 pixels\nDisplay aspect ratio        : 16:9\nFrame rate mode             : Variable\nFrame rate                  : 23.976 fps\nMinimum frame rate          : 23.974 fps\nMaximum frame rate          : 23.981 fps\nColor space                 : YUV\nChroma subsampling          : 4:2:0\nBit depth                   : 8 bits\nScan type                   : Progressive\nBits/(Pixel*Frame)          : 0.067\nStream size                 : 168 MiB (93%)\n\nAudio\nID                          : 2\nFormat                      : AAC\nFormat/Info                 : Advanced Audio Codec\nFormat profile              : LC\nCodec ID                    : 40\nDuration                    : 7mn 1s\nBit rate mode               : Constant\nBit rate                    : 256 Kbps\nChannel(s)                  : 2 channels\nChannel positions           : Front: L R\nSampling rate               : 44.1 KHz\nCompression mode            : Lossy\nStream size                 : 12.9 MiB (7%)","torrent":{"xt":"urn:btih:8a7f6b06d385702514933647f79a62c257f1e3f5","amp;dn":"Rihanna+-+Bitch+Better+Have+My+Money+%28Explicit%29+2015","amp;tr":["udp%3A%2F%2Ftracker.openbittorrent.com%3A80","udp%3A%2F%2Fopen.demonii.com%3A1337","udp%3A%2F%2Ftracker.coppersurfer.tk%3A6969","udp%3A%2F%2Fexodus.desync.com%3A6969"],"infoHash":"8a7f6b06d385702514933647f79a62c257f1e3f5","infoHashBuffer":{"type":"Buffer","data":[138,127,107,6,211,133,112,37,20,147,54,71,247,154,98,194,87,241,227,245]},"announce":[],"urlList":[]}}